# xmcd
#
# Track frame offsets:
#	183
#	19693
#	34913
#	46390
#	63568
#	76548
#	90468
#	104435
#	124243
#	138943
#	153335
#	172823
#	187153
#	198560
#	212283
#	230800
#	246563
#	262385
#	280155
#	297555
#
# Disc length: 4162
#
# Revision: 1
# Processed by: cddbd v1.5.1PL0 Copyright (c) Steve Scherf et al.
# Submitted via: dBpowerAMP V4.0
# Normalized: r0:DSETVAR1
#
DISCID=2a104014
DTITLE=Various Artist - New Stars From The Heartland
DYEAR=1900
DGENRE=General Country
TTITLE0=Garth Brooks - Shameless
TTITLE1=Mary-Chapin Carpenter - Down At The Twist And Shout
TTITLE2=Travis Tritt - Here's A Quarter ( Call Someone Who Cares )
TTITLE3=Trisha Yearwood - She's In Love With The Boy
TTITLE4=Alan Jackson - Don't Rock The Jukebox
TTITLE5=Lorrie Morgan - We Both Walk
TTITLE6=Randy Travis - Forever Together
TTITLE7=The Judds - Young Love ( Strong Love )
TTITLE8=Clint Black - Put Yourself In My Shoes
TTITLE9=Mike Reid - Walk On Faith
TTITLE10=Reba McEntire - For My Broken Heart
TTITLE11=Mark O'Connor and The New Nashville Cats ( with Steve Wariner, Vince Gill and Ricky Skaggs ) - Restless
TTITLE12=Highway 101 - Bing Bang Boom
TTITLE13=George Strait - You Know Me Better Than That
TTITLE14=Vince Gill - Pocket Full Of Gold
TTITLE15=Tanya Tucker - Down To My Last Teardrop
TTITLE16=Doug Stone - A Jukebox With A Country Song
TTITLE17=Suzy Bogguss - Someday Soon
TTITLE18=Ricky Scaggs - Life's Too Long ( Too Live Like This )
TTITLE19=Billy dean - You Don't Count The Cost
EXTD=
EXTT0=
EXTT1=
EXTT2=
EXTT3=
EXTT4=
EXTT5=
EXTT6=
EXTT7=
EXTT8=
EXTT9=
EXTT10=
EXTT11=
EXTT12=
EXTT13=
EXTT14=
EXTT15=
EXTT16=
EXTT17=
EXTT18=
EXTT19=
PLAYORDER=
